<svg width="360" height="501" viewBox="0 0 360 501" fill="none" xmlns="http://www.w3.org/2000/svg">
<path opacity="0.2" d="M-494 500C-481.921 419.151 -286.855 416.782 -276.937 264.404C-256.073 -56.161 264.172 624.694 310.56 443.225C403.169 80.9479 1378.79 138.624 1401 80.9481M-451.539 224.253C-424.94 297.635 -338.945 418.755 -207.755 316.174C-43.7682 187.948 44.814 -65.4144 237.352 17.2373C429.89 99.889 642.927 412.729 745.419 214.983M-491.978 476.679C-479.207 403.174 -289.335 406.686 -273.643 256.679C-245.963 -54.7265 253.726 581.642 307.074 412.75C404.441 71.6601 1343.75 141.487 1369.78 77.141M-489.956 453.359C-476.494 387.198 -291.816 396.59 -270.348 248.955C-235.853 -53.2921 243.281 538.59 303.588 382.275C405.714 62.3723 1308.71 144.35 1338.56 73.3338M-487.934 430.038C-473.781 371.222 -294.296 386.494 -267.054 241.23C-225.743 -51.8577 232.835 495.538 300.102 351.8C406.986 53.0844 1273.67 147.213 1307.35 69.5267M-485.912 406.718C-471.067 355.246 -296.776 376.399 -263.759 233.507C-215.634 -50.4225 222.39 452.487 296.616 321.326C408.259 43.7974 1238.63 150.076 1276.13 65.7202M-483.89 383.398C-468.354 339.27 -299.257 366.303 -260.465 225.782C-205.524 -48.988 211.944 409.434 293.13 290.851C409.531 34.5096 1203.59 152.939 1244.91 61.9131M-481.868 360.077C-465.641 323.294 -301.738 356.207 -257.171 218.057C-195.414 -47.5536 201.498 366.382 289.644 260.376C410.804 25.2217 1168.55 155.802 1213.69 58.1059M-479.846 336.756C-462.927 307.318 -304.218 346.112 -253.876 210.333C-185.304 -46.1192 191.053 323.33 286.158 229.901C412.076 15.9339 1133.5 158.665 1182.47 54.2988M-477.824 313.436C-460.214 291.341 -306.699 336.016 -250.582 202.608C-175.195 -44.6848 180.607 280.278 282.672 199.427C413.349 6.64603 1098.46 161.528 1151.25 50.4916M-475.803 290.115C-457.501 275.365 -309.179 325.92 -247.288 194.884C-165.085 -43.2503 170.161 237.226 279.185 168.952C414.621 -2.64182 1063.42 164.39 1120.04 46.6844M-473.78 266.795C-454.787 259.389 -311.659 315.824 -243.993 187.159C-154.975 -41.8159 159.716 194.174 275.7 138.477C415.894 -11.9297 1028.38 167.253 1088.82 42.8773M-471.759 243.475C-452.074 243.413 -314.14 305.729 -240.699 179.435C-144.866 -40.3807 149.27 151.123 272.213 108.002C417.166 -21.2167 993.339 170.117 1057.6 39.0709M-469.736 220.154C-449.36 227.437 -316.62 295.633 -237.404 171.711C-134.756 -38.9462 138.825 108.07 268.727 77.5276C418.439 -30.5046 958.298 172.98 1026.38 35.2637M-467.715 202.598C-446.647 217.225 -319.101 291.302 -234.11 169.75C-124.646 -31.7475 128.379 70.7826 265.241 52.8169C419.711 -34.0282 923.257 181.607 995.164 37.2208M-465.693 196.793C-443.934 218.764 -321.581 298.721 -230.816 179.541C-114.536 -12.7978 117.933 45.2459 261.755 39.8573C420.983 -25.8006 888.216 201.985 963.946 50.929M-463.671 193.53C-441.22 222.846 -324.062 308.683 -227.521 191.875C-104.427 8.6946 107.488 22.2517 258.269 29.4403C422.256 -15.0306 853.174 224.906 932.728 67.1797M-461.649 196.51C-438.507 233.171 -326.542 324.889 -224.227 210.451C-94.3169 36.4303 97.042 5.5008 254.783 25.2666C423.528 1.98285 818.133 254.07 901.509 89.6738M-459.627 201.97C-435.794 245.975 -329.023 343.573 -220.933 231.507C-84.2073 66.6447 86.5962 -8.77138 251.296 23.5716C424.8 21.4749 783.092 285.713 870.291 114.647M-457.605 207.512C-433.08 258.861 -331.503 362.339 -217.638 252.644C-74.0974 96.9414 76.1508 -22.9611 247.81 21.959C426.073 41.0495 748.051 317.438 839.073 139.702M-455.583 213.081C-430.367 271.775 -333.984 381.133 -214.344 273.81C-63.9878 127.266 65.7051 -37.1232 244.324 20.3741C427.345 60.6516 713.009 349.191 807.855 164.785M-453.561 218.663C-427.653 284.701 -336.464 399.94 -211.049 294.988C-53.8778 157.603 55.2597 -51.2723 240.838 18.8022C428.618 80.2668 677.968 380.957 776.637 189.88" stroke="#393939"/>
</svg>
