<svg width="360" height="446" viewBox="0 0 360 446" fill="none" xmlns="http://www.w3.org/2000/svg">
<path opacity="0.2" d="M-535 327.818C-509.682 258.256 -335.124 291.431 -298.876 158.003C-222.62 -122.697 119.39 575.586 193.425 422.937C341.225 118.197 1201.78 345.817 1231.97 298.651M-447.522 90.7958C-436.97 160.726 -381.978 283.761 -246.426 216.455C-76.9852 132.322 47.6397 -76.4943 204.656 31.6716C361.673 139.837 495.605 455.982 622.648 299.036M-529.003 307.489C-504.388 244.569 -335.523 282.023 -294.547 151.744C-213.854 -119.596 117.805 535.492 195.792 395.263C344.03 110.185 1169.98 342.021 1204.79 289.627M-523.005 287.159C-499.093 230.882 -335.922 272.615 -290.217 145.485C-205.086 -116.494 116.221 495.398 198.159 367.589C346.836 102.173 1138.19 338.224 1177.6 280.602M-517.007 266.83C-493.799 217.196 -336.322 263.207 -285.888 139.225C-196.32 -113.393 114.636 455.304 200.525 339.915C349.642 94.1605 1106.39 334.427 1150.42 271.578M-511.01 246.502C-488.504 203.51 -336.721 253.8 -281.558 132.967C-187.553 -110.291 113.051 415.211 202.892 312.241C352.447 86.1492 1074.6 330.632 1123.24 262.555M-505.012 226.172C-483.21 189.823 -337.12 244.393 -277.229 126.708C-178.786 -107.19 111.466 375.117 205.259 284.567C355.253 78.1372 1042.8 326.835 1096.05 253.53M-499.015 205.843C-477.916 176.136 -337.52 234.985 -272.899 120.449C-170.019 -104.089 109.881 335.023 207.625 256.893C358.058 70.1251 1011.01 323.038 1068.87 244.506M-493.017 185.514C-472.621 162.449 -337.919 225.577 -268.57 114.19C-161.252 -100.988 108.297 294.929 209.992 229.218C360.864 62.1132 979.211 319.242 1041.69 235.482M-487.02 165.184C-467.327 148.762 -338.318 216.169 -264.24 107.931C-152.485 -97.8864 106.712 254.835 212.359 201.544C363.67 54.1011 947.416 315.445 1014.5 226.458M-481.023 144.855C-462.033 135.075 -338.717 206.762 -259.911 101.672C-143.718 -94.7851 105.127 214.741 214.725 173.87C366.475 46.0891 915.62 311.649 987.32 217.434M-475.025 124.526C-456.738 121.389 -339.117 197.354 -255.581 95.4125C-134.951 -91.6838 103.542 174.647 217.092 146.196C369.281 38.0771 883.825 307.852 960.137 208.409M-469.028 104.197C-451.444 107.703 -339.516 187.947 -251.252 89.1541C-126.185 -88.5819 101.957 134.553 219.459 118.522C372.086 30.0657 852.029 304.056 932.953 199.386M-463.03 83.8677C-446.15 94.0158 -339.915 178.539 -246.922 82.895C-117.418 -85.4807 100.373 94.4596 221.826 90.8479C374.892 22.0538 820.234 300.26 905.77 190.362M-458.069 68.6537C-441.892 85.4443 -341.351 174.247 -243.629 81.7512C-109.687 -77.2642 97.7514 59.4808 223.156 68.2889C376.661 19.157 787.402 301.578 877.55 186.453M-455.22 63.8677C-439.746 87.3008 -344.899 180.382 -242.448 91.0354C-104.069 -58.6196 93.0177 34.9302 222.374 56.158C376.318 26.6883 752.458 313.325 847.217 192.972M-452.829 61.338C-438.058 91.4136 -348.904 188.774 -241.724 102.576C-98.908 -37.7188 87.8271 12.6359 221.135 46.2834C375.518 36.4759 717.057 327.328 816.428 201.747M-451.56 64.3487C-437.492 101.067 -354.032 202.706 -242.123 119.657C-94.8696 -11.2775 81.5138 -4.11811 218.773 41.9491C373.595 51.8039 680.533 346.872 784.516 216.063M-450.736 69.559C-437.372 112.92 -359.605 218.838 -242.968 138.937C-91.2768 17.3633 74.7549 -18.6725 215.965 39.8145C371.227 69.3315 643.563 368.615 752.158 232.578M-449.928 74.8425C-437.266 124.846 -365.193 235.043 -243.827 158.291C-87.6985 46.0774 67.9814 -33.1536 213.144 37.7531C368.843 86.9323 606.579 390.431 719.786 249.167M-449.124 80.1505C-437.166 136.796 -370.786 251.273 -244.691 177.669C-84.1255 74.8159 61.2027 -47.6103 210.316 35.7161C366.455 104.558 569.59 412.272 687.409 265.78M-448.322 85.4701C-437.067 148.758 -376.382 267.514 -245.558 197.059C-80.5546 103.566 54.422 -62.0554 207.487 33.6908C364.065 122.194 532.598 434.124 655.03 282.405" stroke="#393939"/>
</svg>
