<svg width="25" height="25" viewBox="0 0 25 25" fill="none" xmlns="http://www.w3.org/2000/svg">
<rect width="25" height="25" rx="12.5" fill="url(#paint0_radial_248_1596)"/>
<path d="M12.5 7.37952C14.1566 7.37952 14.3825 7.37952 15.0602 7.37952C15.6627 7.37952 15.9639 7.53012 16.1898 7.60542C16.491 7.75602 16.7169 7.83133 16.9428 8.05723C17.1687 8.28313 17.3193 8.50904 17.3946 8.81024C17.4699 9.03615 17.5452 9.33735 17.6205 9.93976C17.6205 10.6175 17.6205 10.7681 17.6205 12.5C17.6205 14.2319 17.6205 14.3825 17.6205 15.0602C17.6205 15.6627 17.4699 15.9639 17.3946 16.1898C17.244 16.491 17.1687 16.7169 16.9428 16.9428C16.7169 17.1687 16.491 17.3193 16.1898 17.3946C15.9639 17.4699 15.6627 17.5452 15.0602 17.6205C14.3825 17.6205 14.2319 17.6205 12.5 17.6205C10.7681 17.6205 10.6175 17.6205 9.93976 17.6205C9.33735 17.6205 9.03615 17.4699 8.81024 17.3946C8.50904 17.244 8.28313 17.1687 8.05723 16.9428C7.83133 16.7169 7.68072 16.491 7.60542 16.1898C7.53012 15.9639 7.45482 15.6627 7.37952 15.0602C7.37952 14.3825 7.37952 14.2319 7.37952 12.5C7.37952 10.7681 7.37952 10.6175 7.37952 9.93976C7.37952 9.33735 7.53012 9.03615 7.60542 8.81024C7.75602 8.50904 7.83133 8.28313 8.05723 8.05723C8.28313 7.83133 8.50904 7.68072 8.81024 7.60542C9.03615 7.53012 9.33735 7.45482 9.93976 7.37952C10.6175 7.37952 10.8434 7.37952 12.5 7.37952ZM12.5 6.25C10.7681 6.25 10.6175 6.25 9.93976 6.25C9.26205 6.25 8.81024 6.4006 8.43374 6.55121C8.05723 6.70181 7.68072 6.92771 7.30422 7.30422C6.92771 7.68072 6.77711 7.98193 6.55121 8.43374C6.4006 8.81024 6.3253 9.26205 6.25 9.93976C6.25 10.6175 6.25 10.8434 6.25 12.5C6.25 14.2319 6.25 14.3825 6.25 15.0602C6.25 15.738 6.4006 16.1898 6.55121 16.5663C6.70181 16.9428 6.92771 17.3193 7.30422 17.6958C7.68072 18.0723 7.98193 18.2229 8.43374 18.4488C8.81024 18.5994 9.26205 18.6747 9.93976 18.75C10.6175 18.75 10.8434 18.75 12.5 18.75C14.1566 18.75 14.3825 18.75 15.0602 18.75C15.738 18.75 16.1898 18.5994 16.5663 18.4488C16.9428 18.2982 17.3193 18.0723 17.6958 17.6958C18.0723 17.3193 18.2229 17.0181 18.4488 16.5663C18.5994 16.1898 18.6747 15.738 18.75 15.0602C18.75 14.3825 18.75 14.1566 18.75 12.5C18.75 10.8434 18.75 10.6175 18.75 9.93976C18.75 9.26205 18.5994 8.81024 18.4488 8.43374C18.2982 8.05723 18.0723 7.68072 17.6958 7.30422C17.3193 6.92771 17.0181 6.77711 16.5663 6.55121C16.1898 6.4006 15.738 6.3253 15.0602 6.25C14.3825 6.25 14.2319 6.25 12.5 6.25Z" fill="white"/>
<path d="M12.5 9.26205C10.6928 9.26205 9.26205 10.6928 9.26205 12.5C9.26205 14.3072 10.6928 15.738 12.5 15.738C14.3072 15.738 15.738 14.3072 15.738 12.5C15.738 10.6928 14.3072 9.26205 12.5 9.26205ZM12.5 14.6084C11.3705 14.6084 10.3916 13.7048 10.3916 12.5C10.3916 11.3705 11.2952 10.3916 12.5 10.3916C13.6295 10.3916 14.6084 11.2952 14.6084 12.5C14.6084 13.6295 13.6295 14.6084 12.5 14.6084Z" fill="white"/>
<path d="M15.8133 9.93976C16.2291 9.93976 16.5663 9.60262 16.5663 9.18675C16.5663 8.77087 16.2291 8.43374 15.8133 8.43374C15.3974 8.43374 15.0602 8.77087 15.0602 9.18675C15.0602 9.60262 15.3974 9.93976 15.8133 9.93976Z" fill="white"/>
<defs>
<radialGradient id="paint0_radial_248_1596" cx="0" cy="0" r="1" gradientUnits="userSpaceOnUse" gradientTransform="translate(25.5029 0.507813) scale(57.7324)">
<stop stop-color="#F9ED32"/>
<stop offset="0.36" stop-color="#EE2A7B"/>
<stop offset="0.44" stop-color="#D22A8A"/>
<stop offset="0.6" stop-color="#8B2AB2"/>
<stop offset="0.83" stop-color="#1B2AF0"/>
<stop offset="0.88" stop-color="#002AFF"/>
</radialGradient>
</defs>
</svg>
