<svg width="1920" height="797" viewBox="0 0 1920 797" fill="none" xmlns="http://www.w3.org/2000/svg">
<path opacity="0.1" d="M-76 796C-56.8451 667.192 252.481 663.418 268.208 420.652C301.294 -90.0681 1126.27 994.661 1199.83 705.547C1346.69 128.372 2893.79 220.261 2929 128.372M-8.66756 356.683C33.5119 473.595 169.879 666.561 377.913 503.131C637.956 298.843 778.425 -104.811 1083.74 26.869C1389.06 158.549 1726.88 656.962 1889.41 341.915M-72.7939 758.846C-52.5426 641.739 248.547 647.333 273.432 408.345C317.325 -87.7828 1109.71 926.071 1194.31 656.995C1348.71 113.575 2838.22 224.822 2879.5 122.307M-69.5873 721.692C-48.2395 616.286 244.614 631.249 278.656 396.038C333.357 -85.4974 1093.14 857.481 1188.78 608.443C1350.72 98.7775 2782.65 229.383 2829.99 116.241M-66.3812 684.538C-43.937 590.832 240.681 615.164 283.88 383.732C349.388 -83.2121 1076.58 788.891 1183.25 559.89C1352.74 83.9802 2727.09 233.944 2780.49 110.176M-63.1745 647.385C-39.634 565.381 236.748 599.081 289.105 371.426C365.42 -80.9256 1060.02 720.302 1177.72 511.339C1354.76 69.1842 2671.52 238.506 2730.98 104.111M-59.9684 610.231C-35.3315 539.927 232.814 582.996 294.328 359.12C381.452 -78.6403 1043.45 651.712 1172.19 462.787C1356.78 54.387 2615.95 243.067 2681.48 98.0459M-56.7623 573.077C-31.029 514.474 228.88 566.912 299.552 346.813C397.483 -76.355 1026.89 583.122 1166.66 414.235C1358.79 39.5897 2560.39 247.628 2631.97 91.9804M-53.5557 535.923C-26.7259 489.021 224.947 550.827 304.777 334.506C413.515 -74.0696 1010.32 514.532 1161.14 365.683C1360.81 24.7924 2504.82 252.189 2582.47 85.9149M-50.3496 498.769C-22.4234 463.568 221.014 534.742 310.001 322.2C429.546 -71.7843 993.759 445.942 1155.61 317.13C1362.83 9.99518 2449.25 256.75 2532.97 79.8493M-47.1435 461.614C-18.1209 438.115 217.08 518.658 315.224 309.893C445.577 -69.499 977.195 377.352 1150.08 268.578C1364.85 -4.8021 2393.68 261.311 2483.46 73.7838M-43.9368 424.46C-13.8178 412.662 213.147 502.573 320.449 297.586C461.609 -67.2137 960.631 308.762 1144.55 220.026C1366.87 -19.5994 2338.12 265.872 2433.96 67.7183M-40.7307 387.308C-9.51532 387.21 209.213 486.49 325.673 285.281C477.641 -64.9271 944.067 240.173 1139.02 171.475C1368.88 -34.3954 2282.55 270.435 2384.45 61.654M-37.5241 350.153C-5.21225 361.757 205.28 470.405 330.897 272.974C493.672 -62.6418 927.503 171.583 1133.5 122.923C1370.9 -49.1927 2226.99 274.996 2334.95 55.5885M-34.318 322.183C-0.909752 345.487 201.347 463.504 336.121 269.851C509.704 -51.1729 910.938 112.177 1127.97 83.554C1372.92 -54.8064 2171.42 288.74 2285.44 58.7065M-31.1119 312.934C3.39275 347.939 197.413 475.325 341.345 285.449C525.735 -20.9824 894.374 71.4919 1122.44 62.9069C1374.94 -41.6984 2115.85 321.207 2235.94 80.5462M-27.9052 307.736C7.69581 354.442 193.48 491.197 346.569 305.099C541.767 13.2589 877.81 34.8578 1116.91 46.3107C1376.95 -24.5397 2060.28 357.724 2186.44 106.437M-24.6992 312.485C11.9983 370.892 189.546 517.015 351.793 334.695C557.798 57.447 861.246 8.17062 1111.38 39.6612C1378.97 2.56587 2004.72 404.187 2136.93 142.274M-21.4931 321.182C16.3008 391.29 185.613 546.782 357.017 368.24C573.83 105.584 844.682 -14.5676 1105.86 36.9608C1380.99 33.6204 1949.15 454.6 2087.43 182.06M-18.2864 330.011C20.6039 411.82 181.68 576.681 362.241 401.916C589.861 153.853 828.118 -37.1745 1100.33 34.3917C1383.01 64.8063 1893.58 505.144 2037.92 221.978M-15.0803 338.884C24.9064 432.394 177.746 606.623 367.465 435.637C605.893 202.165 811.553 -59.7374 1094.8 31.8666C1385.03 96.0362 1838.02 555.733 1988.42 261.939M-11.8737 347.778C29.2094 452.989 173.813 636.586 372.69 469.378C621.925 250.498 794.99 -82.2795 1089.27 29.3622C1387.04 127.287 1782.45 606.342 1938.92 301.922" stroke="#393939"/>
</svg>
