<svg width="64" height="64" viewBox="0 0 64 64" fill="none" xmlns="http://www.w3.org/2000/svg">
<path d="M17.568 44.576C14.592 44.576 11.936 43.888 9.6 42.512C7.296 41.104 5.504 39.216 4.224 36.848C2.976 34.448 2.352 31.84 2.352 29.024C2.352 25.728 3.184 22.912 4.848 20.576C6.512 18.208 8.64 16.432 11.232 15.248C13.856 14.064 16.528 13.472 19.248 13.472C22.288 13.472 24.96 14.192 27.264 15.632C29.568 17.04 31.328 18.912 32.544 21.248C33.792 23.584 34.416 26.064 34.416 28.688C34.416 31.6 33.648 34.272 32.112 36.704C30.576 39.136 28.512 41.056 25.92 42.464C23.36 43.872 20.576 44.576 17.568 44.576ZM19.2 43.424C21.12 43.424 22.832 42.912 24.336 41.888C25.872 40.832 27.072 39.296 27.936 37.28C28.832 35.264 29.28 32.864 29.28 30.08C29.28 27.136 28.784 24.496 27.792 22.16C26.832 19.824 25.44 18 23.616 16.688C21.824 15.376 19.712 14.72 17.28 14.72C14.176 14.72 11.76 15.84 10.032 18.08C8.336 20.288 7.488 23.36 7.488 27.296C7.488 30.336 7.984 33.088 8.976 35.552C10 38.016 11.392 39.952 13.152 41.36C14.944 42.736 16.96 43.424 19.2 43.424Z" fill="#BC62C2"/>
<path d="M39.7214 18.472C41.1614 18.472 42.6494 18.6 44.1854 18.856C45.7534 19.112 46.9854 19.464 47.8814 19.912C48.1694 20.008 48.3454 20.136 48.4094 20.296C48.5054 20.424 48.5694 20.664 48.6014 21.016L49.1774 27.256C49.1774 27.352 49.0974 27.416 48.9374 27.448C48.7774 27.48 48.6814 27.432 48.6494 27.304C47.7214 24.808 46.3134 22.904 44.4254 21.592C42.5694 20.28 40.3774 19.624 37.8494 19.624C34.5214 19.624 31.9134 20.792 30.0254 23.128C28.1374 25.464 27.1934 28.6 27.1934 32.536C27.1934 35.48 27.7054 38.184 28.7294 40.648C29.7854 43.112 31.2254 45.064 33.0494 46.504C34.9054 47.944 36.9694 48.664 39.2414 48.664C43.5614 48.664 46.8414 45.976 49.0814 40.6C49.1134 40.472 49.2094 40.424 49.3694 40.456C49.5614 40.488 49.6574 40.552 49.6574 40.648L48.9374 46.792C48.8734 47.176 48.7934 47.432 48.6974 47.56C48.6334 47.656 48.4574 47.768 48.1694 47.896C45.3854 49.016 42.4254 49.576 39.2894 49.576C35.3854 49.576 32.1374 48.808 29.5454 47.272C26.9534 45.704 25.0334 43.72 23.7854 41.32C22.5694 38.92 21.9614 36.424 21.9614 33.832C21.9614 30.824 22.7774 28.152 24.4094 25.816C26.0734 23.48 28.2654 21.672 30.9854 20.392C33.7054 19.112 36.6174 18.472 39.7214 18.472Z" fill="#ECE9E9"/>
</svg>
