<svg width="34" height="34" viewBox="0 0 34 34" fill="none" xmlns="http://www.w3.org/2000/svg">
<path d="M30.3832 16.9993C30.3832 9.64935 24.3498 3.61601 16.9998 3.61601C9.64984 3.61601 3.6165 9.64935 3.6165 16.9993C3.6165 24.3493 9.64984 30.3827 16.9998 30.3827C24.3498 30.3827 30.3832 24.3493 30.3832 16.9993ZM33.6665 16.9993C33.6665 26.2327 26.2332 33.666 16.9998 33.666C7.7665 33.666 0.333172 26.2327 0.333173 16.9993C0.333174 7.76601 7.76651 0.332681 16.9998 0.332682C26.2332 0.332683 33.6665 7.76602 33.6665 16.9993ZM19.5665 18.666L19.5665 23.666L26.1665 16.9993L19.5665 10.3327L19.5665 15.3327L7.83317 15.3327L7.83317 18.666" fill="#2637D1"/>
</svg>
