<?xml version="1.0" encoding="utf-8"?>
<!-- Generated by IcoMoon.io -->
<svg version="1.1" xmlns="http://www.w3.org/2000/svg" xmlns:xlink="http://www.w3.org/1999/xlink" width="752" height="80" viewBox="0 0 752 80">
<svg id="icon-arrow-right" width="48" height="32" viewBox="0 0 48 32" x="0" y="0">
<path fill="#f7f5f5" d="M46.414 17.414c0.781-0.781 0.781-2.047 0-2.828l-12.728-12.728c-0.781-0.781-2.047-0.781-2.828 0s-0.781 2.047 0 2.828l11.314 11.314-11.314 11.314c-0.781 0.781-0.781 2.047 0 2.828s2.047 0.781 2.828 0l12.728-12.728zM0 18h45v-4h-45v4z"></path>
</svg>
<svg id="icon-arrow-left" width="52" height="32" viewBox="0 0 52 32" x="96" y="0">
<path fill="#f5f4f4" d="M2.586 14.586c-0.781 0.781-0.781 2.047 0 2.828l12.728 12.728c0.781 0.781 2.047 0.781 2.828 0s0.781-2.047 0-2.828l-11.314-11.314 11.314-11.314c0.781-0.781 0.781-2.047 0-2.828s-2.047-0.781-2.828 0l-12.728 12.728zM49 14h-45v4h45v-4z"></path>
</svg>
<svg id="icon-ellipse" width="29" height="32" viewBox="0 0 29 32" x="192" y="0">
<path fill="#fe8432" d="M28.299 4.131c-3.954-2.896-8.81-4.246-13.5-3.753s-8.831 2.788-11.511 6.381c-2.68 3.593-3.68 8.189-2.779 12.778s3.628 8.793 7.581 11.689l20.21-27.095z"></path>
</svg>
<svg id="icon-double-arrow-left" width="40" height="32" viewBox="0 0 40 32" x="288" y="0">
<path fill="none" stroke="#e4dcef" stroke-linejoin="miter" stroke-linecap="round" stroke-miterlimit="4" stroke-width="4.5714" d="M15.815 3.565l-12.771 12.771"></path>
<path fill="none" stroke="#e4dcef" stroke-linejoin="miter" stroke-linecap="round" stroke-miterlimit="4" stroke-width="4.5714" d="M15.815 29.107l-12.771-12.771"></path>
<path fill="none" stroke="#ece7f4" stroke-linejoin="miter" stroke-linecap="round" stroke-miterlimit="4" stroke-width="4.5714" d="M26.524 3.438l-12.77 12.77"></path>
<path fill="none" stroke="#ece7f4" stroke-linejoin="miter" stroke-linecap="round" stroke-miterlimit="4" stroke-width="4.5714" d="M26.524 28.979l-12.77-12.771"></path>
</svg>
<svg id="icon-double-arrow-right" width="40" height="32" viewBox="0 0 40 32" x="336" y="0">
<path fill="none" stroke="#e4dcef" stroke-linejoin="miter" stroke-linecap="round" stroke-miterlimit="4" stroke-width="4.5714" d="M23.804 28.435l12.77-12.771"></path>
<path fill="none" stroke="#e4dcef" stroke-linejoin="miter" stroke-linecap="round" stroke-miterlimit="4" stroke-width="4.5714" d="M23.804 2.893l12.77 12.771"></path>
<path fill="none" stroke="#ece7f4" stroke-linejoin="miter" stroke-linecap="round" stroke-miterlimit="4" stroke-width="4.5714" d="M13.095 28.562l12.77-12.77"></path>
<path fill="none" stroke="#ece7f4" stroke-linejoin="miter" stroke-linecap="round" stroke-miterlimit="4" stroke-width="4.5714" d="M13.095 3.021l12.77 12.771"></path>
</svg>
<svg id="icon-double-arrow-down" width="27" height="32" viewBox="0 0 27 32" x="384" y="0">
<path fill="none" stroke="#c99b9b" stroke-linejoin="miter" stroke-linecap="round" stroke-miterlimit="4" stroke-width="3.3684" d="M3.461 19.421l10.72 10.556"></path>
<path fill="none" stroke="#c99b9b" stroke-linejoin="miter" stroke-linecap="round" stroke-miterlimit="4" stroke-width="3.3684" d="M24.934 19.421l-10.72 10.556"></path>
<path fill="none" stroke="#c99b9b" stroke-linejoin="miter" stroke-linecap="round" stroke-miterlimit="4" stroke-width="3.3684" d="M3.368 10.572l10.72 10.556"></path>
<path fill="none" stroke="#c99b9b" stroke-linejoin="miter" stroke-linecap="round" stroke-miterlimit="4" stroke-width="3.3684" d="M24.842 10.572l-10.72 10.556"></path>
</svg>
<svg id="icon-burger" width="54" height="32" viewBox="0 0 54 32" x="432" y="0">
<path fill="none" stroke="#f0eded" stroke-linejoin="miter" stroke-linecap="round" stroke-miterlimit="4" stroke-width="2.9091" d="M1.455 1.455h50.909"></path>
<path fill="none" stroke="#f0eded" stroke-linejoin="miter" stroke-linecap="round" stroke-miterlimit="4" stroke-width="2.9091" d="M1.455 16h50.909"></path>
<path fill="none" stroke="#f0eded" stroke-linejoin="miter" stroke-linecap="round" stroke-miterlimit="4" stroke-width="2.9091" d="M1.455 30.545h50.909"></path>
</svg>
<svg id="icon-fill-arrow-down" width="50" height="32" viewBox="0 0 50 32" x="528" y="0">
<path fill="#8b8989" d="M24.889 32l-24.634-29.333h49.267l-24.634 29.333z"></path>
</svg>
<svg id="icon-facebook" width="32" height="32" viewBox="0 0 32 32" x="624" y="0">
<path fill="#0b84ee" d="M16 0c8.837 0 16 7.163 16 16s-7.163 16-16 16c-8.837 0-16-7.163-16-16s7.163-16 16-16z"></path>
<path fill="#fff" d="M17.326 16.292h2.978l0.468-3.043h-3.446v-1.663c0-1.264 0.411-2.385 1.586-2.385h1.889v-2.656c-0.332-0.045-1.034-0.144-2.36-0.144-2.769 0-4.393 1.471-4.393 4.824v2.025h-2.847v3.043h2.847v8.365c0.564 0.085 1.135 0.143 1.721 0.143 0.53 0 1.047-0.049 1.558-0.118v-8.39z"></path>
</svg>
<svg id="icon-telegram" width="32" height="32" viewBox="0 0 32 32" x="672" y="0">
<path fill="#27a6e5" d="M16 0c8.837 0 16 7.163 16 16s-7.163 16-16 16c-8.837 0-16-7.163-16-16s7.163-16 16-16z"></path>
<path fill="#fefefe" d="M22.4 10.082l-2.404 12.552c0 0-0.336 0.87-1.261 0.453l-5.547-4.405-0.026-0.013c0.749-0.697 6.56-6.107 6.814-6.352 0.393-0.38 0.149-0.606-0.307-0.319l-8.583 5.644-3.311-1.154c0 0-0.521-0.192-0.571-0.609s0.588-0.644 0.588-0.644l13.499-5.484c0 0 1.11-0.505 1.11 0.331z"></path>
</svg>
<svg id="icon-whatsapp" width="30" height="32" viewBox="0 0 30 32" x="720" y="0">
<path fill="#48c95f" d="M14.884 0.587c8.22 0 14.884 6.664 14.884 14.884v1.147c0 8.22-6.664 14.884-14.884 14.884s-14.884-6.664-14.884-14.884v-1.147c0-8.22 6.664-14.884 14.884-14.884z"></path>
<path fill="#fff" d="M20.783 9.91c-1.47-1.522-3.43-2.367-5.5-2.367-4.302 0-7.787 3.607-7.787 8.059 0 1.409 0.381 2.818 1.035 4.001l-1.089 4.17 4.138-1.127c1.144 0.62 2.396 0.958 3.703 0.958 4.302 0 7.787-3.607 7.787-8.059-0.054-2.085-0.817-4.114-2.287-5.635zM19.040 18.476c-0.163 0.451-0.926 0.902-1.307 0.958-0.327 0.056-0.762 0.056-1.198-0.056-0.272-0.113-0.653-0.225-1.089-0.451-1.96-0.845-3.213-2.874-3.322-3.043-0.109-0.113-0.817-1.071-0.817-2.085s0.49-1.465 0.653-1.691c0.163-0.225 0.381-0.225 0.545-0.225 0.109 0 0.272 0 0.381 0s0.272-0.056 0.436 0.338c0.163 0.395 0.545 1.409 0.599 1.465 0.054 0.113 0.054 0.225 0 0.338s-0.109 0.225-0.218 0.338c-0.109 0.113-0.218 0.282-0.272 0.338-0.109 0.113-0.218 0.225-0.109 0.395 0.109 0.225 0.49 0.845 1.089 1.409 0.762 0.676 1.361 0.902 1.579 1.014s0.327 0.056 0.436-0.056c0.109-0.113 0.49-0.564 0.599-0.789s0.272-0.169 0.436-0.113 1.144 0.564 1.307 0.676c0.218 0.113 0.327 0.169 0.381 0.225 0.054 0.169 0.054 0.564-0.109 1.014z"></path>
</svg>
<svg id="icon-viber" width="30" height="32" viewBox="0 0 30 32" x="0" y="48">
<path fill="#7c509a" d="M15.238 0.324c8.416 0 15.238 6.822 15.238 15.238v1.174c0 8.416-6.822 15.238-15.238 15.238s-15.238-6.822-15.238-15.238v-1.174c0-8.416 6.822-15.238 15.238-15.238z"></path>
<path fill="#fff" d="M20.003 7.878c-2.904-0.576-5.92-0.576-8.824 0-1.284 0.288-2.904 1.901-3.183 3.168-0.503 2.477-0.503 5.011 0 7.487 0.335 1.267 1.955 2.88 3.183 3.168 0.056 0 0.112 0.058 0.112 0.115v3.628c0 0.173 0.223 0.288 0.335 0.115l1.675-1.785c0 0 1.34-1.44 1.564-1.67 0 0 0.056-0.058 0.112-0.058 1.675 0.058 3.407-0.115 5.082-0.403 1.285-0.288 2.904-1.901 3.183-3.168 0.503-2.477 0.503-5.011 0-7.487-0.335-1.209-1.955-2.822-3.239-3.11zM20.059 18.706c-0.279 0.576-0.614 1.037-1.173 1.325-0.168 0.058-0.335 0.115-0.503 0.173-0.223-0.058-0.391-0.115-0.558-0.173-1.787-0.749-3.462-1.785-4.803-3.283-0.726-0.864-1.34-1.843-1.843-2.88-0.223-0.518-0.447-0.979-0.614-1.498-0.168-0.461 0.112-0.921 0.391-1.267s0.614-0.576 1.005-0.749c0.279-0.173 0.558-0.058 0.782 0.173 0.447 0.576 0.894 1.152 1.229 1.785 0.223 0.403 0.168 0.864-0.223 1.152-0.112 0.058-0.168 0.115-0.279 0.23-0.056 0.058-0.168 0.115-0.223 0.23-0.112 0.173-0.112 0.346-0.056 0.518 0.447 1.325 1.284 2.361 2.569 2.937 0.223 0.115 0.391 0.173 0.67 0.173 0.391-0.058 0.558-0.518 0.838-0.749s0.614-0.23 0.949-0.058c0.279 0.173 0.558 0.403 0.893 0.634 0.279 0.23 0.558 0.403 0.838 0.634 0.168 0.115 0.223 0.403 0.112 0.691zM17.713 14.387c-0.112 0-0.056 0 0 0-0.223 0-0.279-0.115-0.335-0.288 0-0.115 0-0.288-0.056-0.403-0.056-0.23-0.168-0.461-0.391-0.634-0.112-0.058-0.223-0.115-0.335-0.173-0.168-0.058-0.279-0.058-0.447-0.058-0.168-0.058-0.223-0.173-0.223-0.346 0-0.115 0.168-0.23 0.279-0.23 0.894 0.058 1.564 0.576 1.675 1.67 0 0.058 0 0.173 0 0.23 0 0.115-0.056 0.23-0.168 0.23zM17.155 11.852c-0.279-0.115-0.558-0.23-0.894-0.288-0.112 0-0.279-0.058-0.391-0.058-0.168 0-0.279-0.115-0.223-0.288 0-0.173 0.112-0.288 0.279-0.23 0.558 0.058 1.061 0.173 1.564 0.403 1.005 0.518 1.564 1.382 1.731 2.534 0 0.058 0 0.115 0 0.173 0 0.115 0 0.23 0 0.403 0 0.058 0 0.115 0 0.173-0.056 0.23-0.447 0.288-0.503 0 0-0.058-0.056-0.173-0.056-0.23 0-0.518-0.112-1.037-0.335-1.497-0.335-0.518-0.726-0.864-1.173-1.094zM20.171 15.308c-0.168 0-0.279-0.173-0.279-0.346 0-0.346-0.056-0.691-0.112-1.037-0.223-1.843-1.675-3.34-3.407-3.628-0.279-0.058-0.558-0.058-0.782-0.115-0.168 0-0.391 0-0.447-0.23-0.056-0.173 0.112-0.346 0.279-0.346 0.056 0 0.112 0 0.112 0 0.112 0 2.29 0.058 0 0 2.346 0.058 4.3 1.67 4.691 4.089 0.056 0.403 0.112 0.806 0.112 1.267 0.112 0.173 0 0.346-0.168 0.346z"></path>
</svg>
<svg id="icon-round-arrow-rigth" width="32" height="32" viewBox="0 0 32 32" x="48" y="48">
<path fill="#2637d1" d="M28.596 15.999c0-6.918-5.678-12.596-12.596-12.596s-12.596 5.678-12.596 12.596c0 6.918 5.678 12.596 12.596 12.596s12.596-5.678 12.596-12.596zM31.686 15.999c0 8.69-6.996 15.686-15.686 15.686s-15.686-6.996-15.686-15.686c0-8.69 6.996-15.686 15.686-15.686s15.686 6.996 15.686 15.686zM18.416 17.568v4.706l6.212-6.275-6.212-6.274v4.706h-11.043v3.137z"></path>
</svg>
</svg>
