<svg width="48" height="37" viewBox="0 0 48 37" fill="none" xmlns="http://www.w3.org/2000/svg">
<path d="M15.5681 31.8892C12.5921 31.8892 9.93605 31.2012 7.60005 29.8252C5.29605 28.4172 3.50405 26.5292 2.22405 24.1612C0.976051 21.7612 0.352051 19.1532 0.352051 16.3372C0.352051 13.0412 1.18405 10.2252 2.84805 7.88916C4.51205 5.52116 6.64005 3.74516 9.23205 2.56116C11.8561 1.37716 14.5281 0.785156 17.2481 0.785156C20.2881 0.785156 22.9601 1.50516 25.2641 2.94516C27.5681 4.35316 29.3281 6.22516 30.5441 8.56116C31.7921 10.8972 32.416 13.3772 32.416 16.0012C32.416 18.9132 31.6481 21.5852 30.1121 24.0172C28.5761 26.4492 26.5121 28.3692 23.9201 29.7772C21.3601 31.1852 18.5761 31.8892 15.5681 31.8892ZM17.2001 30.7372C19.1201 30.7372 20.8321 30.2252 22.3361 29.2012C23.8721 28.1452 25.0721 26.6092 25.9361 24.5932C26.8321 22.5772 27.2801 20.1772 27.2801 17.3932C27.2801 14.4492 26.7841 11.8092 25.7921 9.47316C24.8321 7.13716 23.4401 5.31316 21.6161 4.00116C19.8241 2.68916 17.7121 2.03316 15.2801 2.03316C12.1761 2.03316 9.76005 3.15316 8.03205 5.39316C6.33605 7.60116 5.48805 10.6732 5.48805 14.6092C5.48805 17.6492 5.98405 20.4012 6.97605 22.8652C8.00005 25.3292 9.39205 27.2652 11.1521 28.6732C12.9441 30.0492 14.9601 30.7372 17.2001 30.7372Z" fill="#E97AF2"/>
<path d="M37.1121 5.03516C38.5521 5.03516 40.0401 5.16316 41.5761 5.41916C43.1441 5.67516 44.3761 6.02716 45.2721 6.47516C45.5601 6.57116 45.7361 6.69916 45.8001 6.85916C45.8961 6.98716 45.9601 7.22716 45.9921 7.57916L46.5681 13.8192C46.5681 13.9152 46.4881 13.9792 46.3281 14.0112C46.1681 14.0432 46.0721 13.9952 46.0401 13.8672C45.1121 11.3712 43.7041 9.46716 41.8161 8.15516C39.9601 6.84316 37.7681 6.18716 35.2401 6.18716C31.9121 6.18716 29.3041 7.35516 27.4161 9.69116C25.5281 12.0272 24.5841 15.1632 24.5841 19.0992C24.5841 22.0432 25.0961 24.7472 26.1201 27.2112C27.1761 29.6752 28.6161 31.6272 30.4401 33.0672C32.2961 34.5072 34.3601 35.2272 36.632 35.2272C40.9521 35.2272 44.2321 32.5392 46.4721 27.1632C46.5041 27.0352 46.6001 26.9872 46.7601 27.0192C46.9521 27.0512 47.0481 27.1152 47.0481 27.2112L46.3281 33.3552C46.2641 33.7392 46.1841 33.9952 46.0881 34.1232C46.0241 34.2192 45.8481 34.3312 45.5601 34.4592C42.7761 35.5792 39.8161 36.1392 36.6801 36.1392C32.7761 36.1392 29.5281 35.3712 26.9361 33.8352C24.3441 32.2672 22.4241 30.2832 21.1761 27.8832C19.9601 25.4832 19.3521 22.9872 19.3521 20.3952C19.3521 17.3872 20.1681 14.7152 21.8001 12.3792C23.4641 10.0432 25.6561 8.23516 28.3761 6.95516C31.0961 5.67516 34.0081 5.03516 37.1121 5.03516Z" fill="#F0F0F0"/>
</svg>
