<svg width="40" height="42" viewBox="0 0 40 42" fill="none" xmlns="http://www.w3.org/2000/svg">
<rect y="0.425781" width="40" height="41.5412" rx="20" fill="#7C509A"/>
<path d="M26.2539 10.3404C22.4424 9.58445 18.4843 9.58445 14.6728 10.3404C12.9869 10.7183 10.8613 12.835 10.4948 14.498C9.83508 17.7485 9.83508 21.0746 10.4948 24.3251C10.9346 25.9881 13.0602 28.1047 14.6728 28.4827C14.7461 28.4827 14.8194 28.5583 14.8194 28.6339V33.3962C14.8194 33.623 15.1126 33.7742 15.2592 33.5474L17.4581 31.2041C17.4581 31.2041 19.2173 29.3142 19.5105 29.0119C19.5105 29.0119 19.5838 28.9363 19.6571 28.9363C21.856 29.0119 24.1283 28.7851 26.3272 28.4071C28.0131 28.0291 30.1387 25.9125 30.5052 24.2495C31.1649 20.999 31.1649 17.6729 30.5052 14.4224C30.0654 12.835 27.9398 10.7183 26.2539 10.3404ZM26.3272 24.5519C25.9607 25.3078 25.5209 25.9125 24.788 26.2905C24.5681 26.3661 24.3482 26.4417 24.1283 26.5173C23.8351 26.4417 23.6152 26.3661 23.3953 26.2905C21.0497 25.3078 18.8508 23.9471 17.0916 21.9817C16.1387 20.8478 15.3325 19.5627 14.6728 18.2021C14.3796 17.5217 14.0864 16.917 13.8665 16.2366C13.6466 15.6319 14.0131 15.0272 14.3796 14.5736C14.7461 14.12 15.1859 13.8177 15.699 13.5909C16.0654 13.3641 16.4319 13.5153 16.7251 13.8177C17.3115 14.5736 17.8979 15.3295 18.3377 16.161C18.6309 16.6902 18.5576 17.2949 18.0445 17.6729C17.8979 17.7485 17.8246 17.8241 17.678 17.9753C17.6047 18.0509 17.4581 18.1265 17.3848 18.2776C17.2382 18.5044 17.2382 18.7312 17.3115 18.958C17.8979 20.6966 18.9974 22.0573 20.6832 22.8132C20.9764 22.9644 21.1963 23.04 21.5628 23.04C22.0759 22.9644 22.2958 22.3597 22.6623 22.0573C23.0288 21.7549 23.4686 21.7549 23.9084 21.9817C24.2749 22.2085 24.6414 22.5109 25.0811 22.8132C25.4476 23.1156 25.8141 23.3424 26.1806 23.6448C26.4005 23.7959 26.4738 24.1739 26.3272 24.5519ZM23.2487 18.8824C23.1021 18.8824 23.1754 18.8824 23.2487 18.8824C22.9555 18.8824 22.8822 18.7312 22.8089 18.5044C22.8089 18.3532 22.8089 18.1265 22.7356 17.9753C22.6623 17.6729 22.5157 17.3705 22.2225 17.1438C22.0759 17.0682 21.9293 16.9926 21.7827 16.917C21.5628 16.8414 21.4162 16.8414 21.1963 16.8414C20.9764 16.7658 20.9031 16.6146 20.9031 16.3878C20.9031 16.2366 21.123 16.0855 21.2696 16.0855C22.4424 16.161 23.322 16.8414 23.4686 18.2776C23.4686 18.3532 23.4686 18.5044 23.4686 18.58C23.4686 18.7312 23.3953 18.8824 23.2487 18.8824ZM22.5157 15.5563C22.1492 15.4051 21.7827 15.2539 21.3429 15.1783C21.1963 15.1783 20.9764 15.1027 20.8298 15.1027C20.6099 15.1027 20.4634 14.9516 20.5366 14.7248C20.5366 14.498 20.6832 14.3468 20.9031 14.4224C21.6361 14.498 22.2958 14.6492 22.9555 14.9516C24.2749 15.6319 25.0079 16.7658 25.2277 18.2776C25.2277 18.3532 25.2277 18.4288 25.2277 18.5044C25.2277 18.6556 25.2277 18.8068 25.2277 19.0336C25.2277 19.1092 25.2277 19.1848 25.2277 19.2604C25.1545 19.5627 24.6414 19.6383 24.5681 19.2604C24.5681 19.1848 24.4948 19.0336 24.4948 18.958C24.4948 18.2776 24.3482 17.5973 24.055 16.9926C23.6152 16.3122 23.1021 15.8587 22.5157 15.5563ZM26.4738 20.0919C26.2539 20.0919 26.1073 19.8651 26.1073 19.6383C26.1073 19.1848 26.034 18.7312 25.9607 18.2776C25.6675 15.8587 23.7618 13.8933 21.4895 13.5153C21.123 13.4397 20.7565 13.4397 20.4634 13.3641C20.2435 13.3641 19.9503 13.3641 19.877 13.0617C19.8037 12.835 20.0236 12.6082 20.2435 12.6082C20.3168 12.6082 20.3901 12.6082 20.3901 12.6082C20.5367 12.6082 23.3953 12.6838 20.3901 12.6082C23.4686 12.6838 26.034 14.8004 26.5471 17.9753C26.6204 18.5044 26.6937 19.0336 26.6937 19.6383C26.8403 19.8651 26.6937 20.0919 26.4738 20.0919Z" fill="white"/>
</svg>
