<svg width="40" height="43" viewBox="0 0 40 43" fill="none" xmlns="http://www.w3.org/2000/svg">
<rect y="0.789062" width="40" height="41.5412" rx="20" fill="#48C95F"/>
<path d="M27.9268 13.3172C25.9512 11.2726 23.3171 10.1367 20.5366 10.1367C14.7561 10.1367 10.0732 14.9832 10.0732 20.9656C10.0732 22.8587 10.5854 24.7519 11.4634 26.3421L10 31.9458L15.561 30.4313C17.0976 31.2643 18.7805 31.7187 20.5366 31.7187C26.3171 31.7187 31 26.8722 31 20.8898C30.9268 18.088 29.9024 15.3618 27.9268 13.3172ZM25.5854 24.8276C25.3659 25.4334 24.3415 26.0392 23.8293 26.1149C23.3902 26.1907 22.8049 26.1907 22.2195 26.0392C21.8537 25.8877 21.3415 25.7363 20.7561 25.4334C18.122 24.2975 16.439 21.5714 16.2927 21.3442C16.1463 21.1927 15.1951 19.9054 15.1951 18.5423C15.1951 17.1792 15.8537 16.5734 16.0732 16.2705C16.2927 15.9676 16.5854 15.9676 16.8049 15.9676C16.9512 15.9676 17.1707 15.9676 17.3171 15.9676C17.4634 15.9676 17.6829 15.8919 17.9024 16.422C18.122 16.9521 18.6341 18.3151 18.7073 18.3909C18.7805 18.5423 18.7805 18.6938 18.7073 18.8452C18.6341 18.9967 18.561 19.1481 18.4146 19.2996C18.2683 19.451 18.1219 19.6782 18.0488 19.7539C17.9024 19.9054 17.7561 20.0568 17.9024 20.284C18.0488 20.5869 18.561 21.4199 19.3659 22.1772C20.3902 23.0859 21.1951 23.3888 21.4878 23.5402C21.7805 23.6917 21.9268 23.616 22.0732 23.4645C22.2195 23.3131 22.7317 22.7073 22.878 22.4043C23.0244 22.1014 23.2439 22.1772 23.4634 22.2529C23.6829 22.3286 25 23.0102 25.2195 23.1616C25.5122 23.3131 25.6585 23.3888 25.7317 23.4645C25.8049 23.6917 25.8049 24.2218 25.5854 24.8276Z" fill="white"/>
</svg>
